<svg width="105" height="20" viewBox="0 0 105 20" fill="none" xmlns="http://www.w3.org/2000/svg">
<path d="M16.207 13.1035L12.4141 20L0 0H8.27539L16.207 13.1035ZM27.5859 12.7588L23.793 20L15.1729 5.51758H23.4482L27.5859 12.7588ZM94.834 16.125C94.724 16.9349 94.389 17.5749 93.8291 18.0449C93.2791 18.5149 92.4441 18.75 91.3242 18.75C90.3342 18.75 89.3986 18.7099 88.5186 18.6299L88.6992 17.0703C89.659 17.1603 90.5689 17.2051 91.4287 17.2051C91.9784 17.2051 92.3835 17.1153 92.6436 16.9355C92.9036 16.7555 93.0594 16.4701 93.1094 16.0801L93.1689 15.54H91.2939C89.2241 15.54 88.1886 14.5752 88.1885 12.6455C88.1885 12.4256 88.2044 12.1903 88.2344 11.9404L88.3535 10.7998C88.6136 8.39 89.9439 7.18561 92.3438 7.18555H95.9287L94.834 16.125ZM78.3125 7.125C80.3824 7.125 81.4178 8.07487 81.418 9.97461C81.418 10.2045 81.403 10.4548 81.373 10.7246L81.2227 11.9854C80.9326 14.3951 79.6079 15.5996 77.248 15.5996H76.5283C74.4583 15.5996 73.4229 14.65 73.4229 12.75C73.4229 12.52 73.4378 12.27 73.4678 12L73.6182 10.7402C73.9082 8.33029 75.2329 7.12506 77.5928 7.125H78.3125ZM101.33 7.125C102.36 7.125 103.135 7.37035 103.655 7.86035C104.185 8.34033 104.45 9.05511 104.45 10.0049C104.45 10.2248 104.435 10.4648 104.405 10.7246L104.24 12.0752H98.6455V12.0898C98.6255 12.3098 98.6152 12.46 98.6152 12.54C98.6152 13.0498 98.76 13.4297 99.0498 13.6797C99.3498 13.9197 99.85 14.04 100.55 14.04H101.285C101.805 14.04 102.595 13.9953 103.655 13.9053L103.49 15.4648C102.61 15.5548 101.82 15.5996 101.12 15.5996H100.385C99.1749 15.5996 98.2848 15.3552 97.7148 14.8652C97.1549 14.3752 96.875 13.655 96.875 12.7051C96.875 12.4751 96.8899 12.24 96.9199 12L97.0703 10.7402C97.2103 9.54031 97.605 8.64004 98.2549 8.04004C98.9049 7.43004 99.8303 7.125 101.03 7.125H101.33ZM47.7305 4.27539C48.2905 4.27539 48.616 4.54498 48.7061 5.08496L50.416 15.54H48.541L48.0459 12.2852H43.2012L41.8955 15.54H39.9609L44.2812 4.96484C44.4713 4.50503 44.8212 4.27539 45.3311 4.27539H47.7305ZM55.9443 7.18555C56.4443 7.18555 56.8697 7.20047 57.2197 7.23047L56.9492 8.82031C56.3293 8.80031 55.929 8.79004 55.749 8.79004C55.1093 8.79008 54.6295 8.94507 54.3096 9.25488C53.9896 9.55486 53.789 10.055 53.709 10.7549L53.1094 15.54H51.3848L51.9697 10.7998C52.1198 9.52996 52.4994 8.60999 53.1094 8.04004C53.7294 7.47007 54.6744 7.18555 55.9443 7.18555ZM61.2725 7.18457H63.8223L63.6279 8.79004H61.0781L60.6123 12.6152C60.6023 12.6852 60.5977 12.7805 60.5977 12.9004C60.5978 13.5702 60.928 13.9053 61.5879 13.9053C61.8679 13.9053 62.368 13.895 63.0879 13.875L62.8926 15.5098C62.4926 15.5298 61.9925 15.54 61.3926 15.54C60.5726 15.54 59.9373 15.3553 59.4873 14.9854C59.0374 14.6154 58.8125 14.0649 58.8125 13.335C58.8125 13.2549 58.8228 13.1047 58.8428 12.8848L59.3379 8.79004H57.4629L57.6572 7.18457H59.5479L59.8027 5.05469H61.5273L61.2725 7.18457ZM73.0391 5.9248H67.4287L67.0088 9.27051H72.0938L71.8984 10.9199H66.8135L66.2441 15.54H64.4736L65.8535 4.27539H73.2334L73.0391 5.9248ZM86.7793 7.18555C87.2793 7.18555 87.7047 7.20047 88.0547 7.23047L87.7842 8.82031C87.1642 8.80031 86.764 8.79004 86.584 8.79004C85.9443 8.79009 85.4645 8.94507 85.1445 9.25488C84.8246 9.55486 84.624 10.055 84.5439 10.7549L83.9443 15.54H82.2197L82.8047 10.7998C82.9547 9.52996 83.3344 8.60999 83.9443 8.04004C84.5643 7.47007 85.5093 7.18555 86.7793 7.18555ZM77.3975 8.73047C76.1978 8.73064 75.5184 9.38549 75.3584 10.6953L75.1934 12.0449C75.1734 12.2448 75.1631 12.3848 75.1631 12.4648C75.1631 13.4848 75.6828 13.995 76.7227 13.9951H77.4434C78.643 13.995 79.3234 13.34 79.4834 12.0303L79.6475 10.6797C79.6674 10.4798 79.6777 10.3397 79.6777 10.2598C79.6777 9.24 79.1579 8.73054 78.1182 8.73047H77.3975ZM92.1494 8.75977C90.9195 8.75977 90.2338 9.42499 90.0938 10.7549L89.959 11.9854C89.939 12.1848 89.9287 12.3196 89.9287 12.3896C89.9287 13.4396 90.4493 13.9648 91.4893 13.9648H93.3643L94.0088 8.75977H92.1494ZM43.8613 10.6348H47.791L47.0713 5.9248H45.7656L43.8613 10.6348ZM100.835 8.65527C99.655 8.65532 98.9852 9.31017 98.8252 10.6201H102.695V10.6055C102.715 10.3855 102.725 10.225 102.725 10.125C102.725 9.64504 102.595 9.28027 102.335 9.03027C102.085 8.78027 101.685 8.65527 101.135 8.65527H100.835ZM29.1377 8.62109L23.793 0H34.4824L29.1377 8.62109Z" fill="white"/>
</svg>
